<svg xmlns="http://www.w3.org/2000/svg" xmlns:xlink="http://www.w3.org/1999/xlink" width="100" height="100" viewBox="0 0 100 100"><path fill="#fff" d="M94.654 28.13l-42.582-24.065c-1.168-.696-3.074-.696-4.242 0l-42.582 24.065c-1.166.699-2.12 2.379-2.12 3.74v35.173c0 1.36 1.064 2.789 2.366 3.178l42.09 15.34c1.302.393 3.431.393 4.732 0l42.092-15.34c1.301-.389 2.366-1.817 2.366-3.178v-35.173c0-1.361-.956-3.041-2.12-3.74z"/><g fill="#202F37"><path d="M39.641 55.963l-1.113 3.49h3.251l-1.083-3.49zM42.812 40.703c.193-.213.237-.538.237-1.312 0-.778-.044-1.099-.237-1.312-.128-.132-.366-.174-.991-.174h-3.371v2.972h3.372c.625-.001.862-.043.99-.174zM60.132 24.836c0-.131-.081-.18-.197-.18-.114 0-.264.069-.346.118-1.101.754-2.202 1.758-2.959 2.68.131.197.312.214.394.214.938-.001 3.108-2.32 3.108-2.832zM57.59 38.033h-2.172c-.646 0-.858.046-.99.173-.151.151-.26.624-.26 3.917 0 3.316.108 3.769.26 3.919.132.132.345.174.99.174h2.172c.646 0 .859-.042.991-.174.15-.151.259-.624.259-3.919 0-3.293-.108-3.766-.259-3.917-.132-.127-.346-.173-.991-.173zM57.729 55.425h-3.374v2.972h3.374c.625 0 .861-.045.989-.174.194-.212.24-.537.24-1.312s-.046-1.099-.24-1.315c-.127-.128-.364-.171-.989-.171zM74.437 55.468h-3.55l.041 8.354h3.509c.973 0 1.338-.066 1.553-.278.237-.24.322-.883.322-3.897 0-3.037-.085-3.66-.322-3.9-.216-.215-.581-.279-1.553-.279zM96.736 27.358l-44.565-25.185c-1.222-.729-3.217-.729-4.439 0l-44.566 25.185c-1.22.732-2.219 2.49-2.219 3.914v36.812c0 1.423 1.114 2.918 2.477 3.325l44.05 16.054c1.363.411 3.591.411 4.953 0l44.052-16.054c1.361-.407 2.477-1.902 2.477-3.325v-36.812c-.001-1.423-1.002-3.182-2.22-3.914zm-59.444-9.394c1.698-.732 4.251-.427 7.506-.427 7.663 0 15.128-.465 15.459-.465.212 0 .262-.194 1.741.99.214.181.791.525.791.791 0 .197-.691.344-1.118.394-1.203.14-2.717.269-4.214.377-1.141.318-2.005 1.007-2.702 1.666-2.236 2.126-3.797 3.231-4.215 3.759 1.07-.525 1.693-.918 2.55-.918.511 0 1.465.525 1.465 1.201 0 .197-.067.279-.347.525-.789.676-3.305 2.647-3.305 3.487 0 .167.098.229.215.229.328 0 1.348-.675 2.301-1.414.554-.427 1.126-1.237 1.294-1.493.47-.705 1.115-1.357 1.785-1.961 1.314-1.184 2.318-1.709 2.945-1.709.345 0 .803.345 1.218.807.589.542.639.823.639 1.034 0 1.581-2.713 3.818-3.945 3.818-.346 0-.84-.197-1.201-.578-.312.476-.495.889-.495 1.184 0 .263.135.61.643.61.296 0 .655-.102.856-.164 3.007-1.105 4.585-2.568 4.737-2.568.129 0 .144.102.144.164 0 .181-.656.938-1.331 1.548-1.201 1.099-2.827 2.253-4.438 2.253-.702 0-2.183-1.587-2.27-2.282-1 .921-2.669 2.131-3.441 2.131-.935 0-1.414-1.151-1.414-1.971 0-1.036 1.268-2.253 2.384-3.356-1.282.545-2.729 1.778-5.016 4.573-.132.148-.412.804-.593.804-.312 0-1.398-.873-1.398-1.479 0-.082.05-.23.148-.377 2.047-2.992 6.333-6.948 8.954-9.302-.666.029-1.253.045-1.673.045-.51 0-2.005 1.217-3.126 2.303-1.316 1.279-4.635 4.52-6.79 7.318-1.284 1.657-1.119 2.185-1.366 2.185-.659 0-1.794-1.958-1.794-2.335 0-1.037 2.977-3.897 4.474-5.347 2.516-2.431 3.963-3.697 4.259-3.927l.396-.282c-3.483-.61-7.173-1.673-9.385-1.06-2.785.771-4.248 6.757-.217 5.311 1.704-.61 3.259-1.938 4.191-3.093.361-.45.591-.226.202.384-1.253 1.961-3.181 3.824-6.911 3.953-3.542.12-2.857-5.495 1.408-7.336zm26.197 24.16c0 4.157-.493 5.859-1.38 6.718-.578.584-1.227.819-2.797.819h-5.617c-1.57 0-2.217-.235-2.796-.819-.887-.859-1.379-2.561-1.379-6.718 0-4.156.492-5.855 1.379-6.715.58-.584 1.226-.82 2.796-.82h5.617c1.57 0 2.219.236 2.797.82.887.859 1.38 2.558 1.38 6.715zm-31.046 4.178h1.591v-8.355h-1.591v-3.359h11.662c1.291 0 2.132.217 2.712.794.67.669.883 1.509.883 3.382 0 2.674-.71 3.316-2.453 3.661l2.282 3.877h1.441v3.358h-4.655l-3.335-5.684h-2.53v2.326h1.635v3.358h-7.642v-3.358zm-14.283 0h4.061v-8.355h-4.061v-3.359h13.07v3.359h-4.058v8.355h4.058v3.358h-13.07v-3.358zm11.982 20.879h-7.816v-3.358h1.701v-2.345l-4.372-6.01h-1.494v-3.359h7.824v3.316h-1.312l1.656 2.586h.086l1.789-2.586h-1.314v-3.316h7.537v3.359h-1.529l-4.458 5.944v2.41h1.702v3.359zm49.252-1.187c-.904.906-2.069 1.187-4.242 1.187h-14.927l-3.339-5.685h-2.53v2.326h1.637v3.358h-14.408000000000001v-3.293h1.378l-.366-1.292h-4.889l-.345 1.292h1.378v3.293h-7.511v-3.358h1.721l3.993-11.778h6.779l3.977 11.778h2.242v-8.354h-1.592v-3.359h11.665c1.289 0 2.13.216 2.712.797.668.669.881 1.506.881 3.383 0 2.666-.71 3.316-2.454 3.66l2.283 3.874h3.035v-8.354h-1.592v-3.359h10.272c2.173 0 3.338.279 4.242 1.185 1.03 1.034 1.571 2.585 1.571 6.354 0 3.763-.541 5.315-1.571 6.345zm2.347-28.047h-1.555v11.713h-4.958l-5.308-8.59v5.231h1.591l.021 3.358h-7.188v-3.358h1.592v-8.355h-1.592v-3.359h6.852l5.01 7.708v-4.35h-1.485v-3.359h7.021v3.361z"/></g><defs><path id="a" d="M87.664 39.389l-29.737-16.807c-.814-.486-2.147-.486-2.961 0l-29.737 16.807c-.814.487-1.479 1.662-1.479 2.611v24.562c0 .949.742 1.947 1.652 2.219l29.393 10.712c.909.274 2.396.274 3.306 0l29.392-10.712c.91-.271 1.653-1.27 1.653-2.219v-24.562c-.001-.95-.667-2.124-1.482-2.611z"/></defs><clipPath><use xlink:href="#a" overflow="visible"/></clipPath></svg>